# xmcd CD database file
#
# Track frame offsets:
#	150
#	14157
#	26778
#	39585
#	50894
#	63218
#	75181
#	86487
#	98085
#	108647
#	121382
#	132417
#	143790
#	148804
#	160496
#	171239
#	182002
#	194029
#	205402
#	217394
#
# Disc length: 3057 seconds
#
# Revision: 0
# Processed by: cddbd v1.5.2PL0 Copyright (c) Steve Scherf et al.
# Submitted via: CDex 1.51
#
DISCID=390bef14
DTITLE=Jim Reeves - BT3037_1
DYEAR=1960
DGENRE=Country
TTITLE0=Jim Reeves - Each Beat Of My Heart
TTITLE1=Jim Reeves - Bimbo
TTITLE2=Jim Reeves - Butterfly Love
TTITLE3=Jim Reeves - It's Hard To Love Just One
TTITLE4=Jim Reeves - Let Me Love You Just A Little
TTITLE5=Jim Reeves - Mexican Joe
TTITLE6=Jim Reeves - Wagon Load Of Love
TTITLE7=Jim Reeves - Whispering Willow
TTITLE8=Jim Reeves - Beatin' On The Ding Dong
TTITLE9=Jim Reeves - Echo Bonita
TTITLE10=Jim Reeves - Gypsy Heart
TTITLE11=Jim Reeves - I Love You (With Ginny Wright)
TTITLE12=Jim Reeves - I'll Always Love You
TTITLE13=Jim Reeves - I'll Follow You
TTITLE14=Jim Reeves - Let Me Remember (Things I Can't Forget)
TTITLE15=Jim Reeves - My Rambling Heart
TTITLE16=Jim Reeves - Padre Of Old San Antone
TTITLE17=Jim Reeves - Penny Candy
TTITLE18=Jim Reeves - Shall We Gather At The River (Mother Went A-Walkin∆)?
TTITLE19=Jim Reeves - The Wilder Your Heart Beats (The Sweeter You Are)
EXTD=YEAR: 1960
EXTT0=
EXTT1=
EXTT2=
EXTT3=
EXTT4=
EXTT5=
EXTT6=
EXTT7=
EXTT8=
EXTT9=
EXTT10=
EXTT11=
EXTT12=
EXTT13=
EXTT14=
EXTT15=
EXTT16=
EXTT17=
EXTT18=
EXTT19=
PLAYORDER=
